<svg xmlns="http://www.w3.org/2000/svg" viewBox="0 0 256 361">
  <path fill="#1572B6" d="m127.844 360.088l-104.596-28.98L.067 70.777h255.866l-23.209 260.322l-104.88 28.989Z"/>
  <path fill="#33A9DC" d="m212.417 314.547l19.86-222.49H128V337.95l84.417-23.403Z"/>
  <path fill="#EBEBEB" d="M53.669 188.636l2.862 31.937H128v-31.937H53.669Zm-5.752 0l-2.919-32.704H128v-31.937H47.917l8.614 96.578H128v-31.937H85.739l-2.822-31.937Z"/>
  <path fill="#FFF" d="M127.89 220.573h39.327l-3.708 41.42l-35.62 9.614v33.226l65.473-18.145l.48-5.396l7.506-84.08l.779-8.576H127.89v31.937Zm0-64.641v31.937h75.357l.634-7.090l1.438-16.016l.744-8.831H127.89Z"/>
  <path fill="#EBEBEB" d="M127.89 271.58l-.14.037l-35.568-9.604l-2.274-25.471h-32.06l4.474 50.146l65.421 18.16l.147-.04V271.58Z"/>
</svg>
