<svg xmlns="http://www.w3.org/2000/svg" viewBox="0 0 256 326">
  <path fill="#092E20" d="M114.784 0h53.278v244.191c-27.29 5.162-47.38 7.193-69.117 7.193c-65.22 0-97.242-29.716-97.242-86.094c0-56.378 35.342-92.4 90.175-92.4c8.714 0 15.906.651 22.906 2.291V0zm0 132.803c-6.351-1.52-11.99-2.171-19.183-2.171c-27.29 0-42.545 16.235-42.545 47.38c0 30.366 14.605 45.831 41.894 45.831c6.7 0 12.66-.651 19.834-1.953v-89.087Z"/>
  <path fill="#092E20" d="M255.69 84.742v165.24c0 58.41-2.932 86.515-12.66 110.45c-8.714 22.906-20.704 37.511-45.18 56.058l-49.729-23.557c24.476-17.706 36.466-31.668 44.529-53.923c8.714-23.228 11.646-49.078 11.646-108.5V84.742h51.394Z"/>
  <path fill="#092E20" d="M204.296 0h51.394v69.137h-51.394V0Z"/>
</svg>
