<svg xmlns="http://www.w3.org/2000/svg" viewBox="0 0 256 149">
  <path fill="#000" d="M.773 69.813c.694-1.294 2.058-2.588 3.422-2.588c1.364 0 2.728 1.294 3.422 2.588l25.316 48.632c.694 1.294 2.058 2.588 3.422 2.588h6.844c1.364 0 2.728-1.294 3.422-2.588l25.316-48.632c.694-1.294 2.058-2.588 3.422-2.588c1.364 0 2.728 1.294 3.422 2.588l25.316 48.632c.694 1.294 2.058 2.588 3.422 2.588h6.844c1.364 0 2.728-1.294 3.422-2.588l25.316-48.632c.694-1.294 2.058-2.588 3.422-2.588c1.364 0 2.728 1.294 3.422 2.588l25.316 48.632c.694 1.294 2.058 2.588 3.422 2.588h6.844c1.364 0 2.728-1.294 3.422-2.588l25.316-48.632c.694-1.294 2.058-2.588 3.422-2.588c1.364 0 2.728 1.294 3.422 2.588l25.316 48.632c.694 1.294 2.058 2.588 3.422 2.588h6.844c1.364 0 2.728-1.294 3.422-2.588l25.316-48.632c.694-1.294 2.058-2.588 3.422-2.588"/>
  <path fill="#000" d="M128 0C57.308 0 0 57.308 0 128s57.308 128 128 128s128-57.308 128-128S198.692 0 128 0zm0 234c-58.551 0-106-47.449-106-106S69.449 22 128 22s106 47.449 106 106s-47.449 106-106 106z"/>
  <path fill="#000" d="M128 44c-46.392 0-84 37.608-84 84s37.608 84 84 84s84-37.608 84-84s-37.608-84-84-84zm0 146c-34.234 0-62-27.766-62-62s27.766-62 62-62s62 27.766 62 62s-27.766 62-62 62z"/>
</svg>
