<svg xmlns="http://www.w3.org/2000/svg" viewBox="0 0 256 361">
  <path fill="#E34F26" d="m255.555 70.766l-23.241 260.36l-104.47 28.962l-104.182-28.922L.445 70.766h255.11Z"/>
  <path fill="#EF652A" d="m128 337.95l84.417-23.403l19.86-222.49H128V337.95Z"/>
  <path fill="#EBEBEB" d="M82.82 155.932H128v-31.937H47.917l.764 8.568l7.85 88.01H128v-31.937H85.739l-2.919-32.704Zm7.198 80.61h-32.06l4.474 50.146l65.421 18.16l.147-.04V271.58l-.14.037l-35.568-9.604l-2.274-25.471Z"/>
  <path fill="#FFF" d="M127.89 220.573h39.327l-3.708 41.42l-35.62 9.614v33.226l65.473-18.145l.48-5.396l7.506-84.08l.779-8.576H127.89v31.937Zm0-64.641v31.937h75.357l.634-7.090l1.438-16.016l.744-8.831H127.89Z"/>
</svg>
